#!OML:ASF I:\Actors\actors\Patient Classification 2\Patient 1\Session 1\actor1.ASF
:FULLY-SPECIFIED
:DEGREES
124
root -0.643205 18.7172 5.66616 5.02307 -2.66784 -0.525747
lowerback -1.81998 1.38792 -2.70975
upperback -3.20748 1.85503 -0.209657
thorax -2.35306 0.987889 1.2953
lowerneck -10.8484 -2.45039 -1.50227
upperneck 25.7889 -4.01261 3.23226
head 10.0788 -1.63766 0.917931
rclavicle 1.30452e-014 3.97569e-016
rhumerus -50.3902 2.74498 -88.6314
rradius 52.059
rwrist 2.44764
rhand -7.12097 -41.78
rfingers 7.12502
rthumb 18.7545 -70.8959
lclavicle 1.30452e-014 3.97569e-016
lhumerus -40.862 -0.713682 89.1339
lradius 39.2613
lwrist -4.63272
lhand -8.93027 -27.3741
lfingers 7.12502
lthumb 17.0136 1.90084
rfemur 1.97176 4.51032 13.4421
rtibia -1.59028e-014
rfoot -16.1511 -10.5569
rtoes -4.05283
lfemur -6.68373 -8.04208 -13.3241
ltibia 19.7764
lfoot -22.671 13.858
ltoes -55.3585
125
root -0.644257 18.7179 5.65928 4.98936 -2.6675 -0.511183
lowerback -1.66194 1.38759 -2.75287
upperback -3.15177 1.85065 -0.20451
thorax -2.38582 0.98658 1.32132
lowerneck -10.9462 -2.34092 -1.24643
upperneck 26.0751 -3.81518 2.83137
head 10.1819 -1.56241 0.756251
rclavicle -1.29334e-014 -5.96354e-015
rhumerus -50.3536 3.49073 -88.8393
rradius 54.6305
rwrist 0.0955525
rhand -5.56051 -43.0388
rfingers 7.12502
rthumb 20.2548 -72.0027
lclavicle -1.29334e-014 -5.96354e-015
lhumerus -40.7479 -1.3861 89.1937
lradius 40.3215
lwrist -4.0509
lhand -9.47692 -27.854
lfingers 7.12502
lthumb 16.4873 1.46546
rfemur 1.98353 4.51301 13.4346
rtibia 3.18055e-015
rfoot -16.1503 -10.5709
rtoes -4.3339
lfemur -6.66508 -8.0212 -13.3294
ltibia 19.7686
lfoot -22.6791 13.7646
ltoes -55.2204
126
root -0.645783 18.7186 5.65284 5.00424 -2.64305 -0.457295
lowerback -1.59154 1.3738 -2.83054
upperback -3.09865 1.8307 -0.215917
thorax -2.37198 0.977537 1.35218
lowerneck -11.0719 -2.18006 -1.01287
upperneck 26.4539 -3.56235 2.50858
head 10.3273 -1.45395 0.631913
rclavicle -7.97623e-015 1.19271e-015
rhumerus -50.2836 4.31819 -89.1323
rradius 57.2083
rwrist -1.99531
rhand -4.73791 -43.9703
rfingers 7.12502
rthumb 21.0452 -72.8483
lclavicle -7.97623e-015 1.19271e-015
lhumerus -40.583 -2.02854 89.199
lradius 41.3868
lwrist -3.47285
lhand -9.40401 -28.1339
lfingers 7.12502
lthumb 16.5575 1.17971
rfemur 1.94608 4.48246 13.3814
rtibia 1.59028e-015
rfoot -16.1183 -10.6154
rtoes -4.72691
lfemur -6.71149 -7.96281 -13.3693
ltibia 19.7662
lfoot -22.6674 13.6763
ltoes -55.1445
127
root -0.646992 18.72 5.64376 5.0489 -2.67347 -0.436881
lowerback -1.52112 1.38434 -2.85954
upperback -3.06905 1.84278 -0.224772
thorax -2.38226 0.983931 1.35777
lowerneck -11.1568 -2.0002 -0.91867
upperneck 26.9196 -3.31911 2.42894
head 10.507 -1.33557 0.616919
rclavicle 4.96962e-017 1.03368e-014
rhumerus -50.193 5.18324 -89.4698
rradius 59.7737
rwrist -3.89205
rhand -4.66822 -44.8642
rfingers 7.12502
rthumb 21.1122 -73.7347
lclavicle 4.96962e-017 1.03368e-014
lhumerus -40.3566 -2.70182 89.21
lradius 42.4399
lwrist -2.72349
lhand -8.95921 -28.0508
lfingers 7.12502
lthumb 16.9857 1.22649
rfemur 1.85452 4.50621 13.3566
rtibia -7.95139e-015
rfoot -16.0646 -10.696
rtoes -5.20651
lfemur -6.79168 -7.99809 -13.3825
ltibia 19.7737
lfoot -22.6845 13.7838
ltoes -55.1914
128
root -0.647848 18.7211 5.63287 5.09439 -2.79188 -0.475549
lowerback -1.41418 1.43153 -2.83177
upperback -3.05809 1.90256 -0.215885
thorax -2.43308 1.01377 1.348
lowerneck -11.1294 -1.80006 -0.690128
upperneck 27.3682 -3.03891 2.21901
head 10.6548 -1.20345 0.538336
rclavicle 2.4407e-014 -1.82882e-014
rhumerus -50.0139 5.96792 -89.718
rradius 62.3941
rwrist -5.75575
rhand -4.41211 -45.9253
rfingers 7.12502
rthumb 21.3582 -74.7682
lclavicle 2.4407e-014 -1.82882e-014
lhumerus -40.1273 -3.5477 89.298
lradius 43.5198
lwrist -1.74239
lhand -8.36248 -27.7978
lfingers 7.12502
lthumb 17.56 1.42921
rfemur 1.73655 4.6228 13.3846
rtibia 9.54166e-015
rfoot -16.0579 -10.7199
rtoes -5.19771
lfemur -6.86224 -8.02515 -13.3462
ltibia 19.7956
lfoot -22.7184 13.9648
ltoes -55.2289
